<?xml version="1.0" encoding="utf-8"?>
<!-- Generator: Adobe Illustrator 24.3.0, SVG Export Plug-In . SVG Version: 6.00 Build 0)  -->
<svg version="1.1" id="Layer_1" xmlns="http://www.w3.org/2000/svg" xmlns:xlink="http://www.w3.org/1999/xlink" x="0px" y="0px"
	 viewBox="0 0 800 600" style="enable-background:new 0 0 800 600;" xml:space="preserve">
<style type="text/css">
	.st0{fill:#E9E3E6;}
	.st1{fill:#FFE548;}
	.st2{fill:#FFFC7C;}
	.st3{fill:#4F359B;}
	.st4{fill:none;stroke:#000000;stroke-width:12;stroke-miterlimit:10;}
	.st5{stroke:#000000;stroke-width:10;stroke-miterlimit:10;}
	.st6{fill:none;stroke:#000000;stroke-width:10;stroke-linecap:round;stroke-miterlimit:10;}
	.st7{fill:none;stroke:#000000;stroke-width:10;stroke-linejoin:round;stroke-miterlimit:5;}
	.st8{stroke:#000000;stroke-width:3;stroke-linecap:round;stroke-linejoin:round;stroke-miterlimit:10;}
	.st9{fill:none;stroke:#000000;stroke-width:10;stroke-linecap:round;stroke-linejoin:round;stroke-miterlimit:10;}
	.st10{fill:none;stroke:#000000;stroke-width:10;stroke-miterlimit:10;}
	.st11{fill:none;stroke:#000000;stroke-width:7;stroke-miterlimit:10;}
	.st12{stroke:#000000;stroke-width:7;stroke-miterlimit:10;}
	.st13{fill:none;stroke:#000000;stroke-width:7;stroke-linejoin:round;stroke-miterlimit:5;}
	.st14{fill:none;stroke:#4F359B;stroke-width:7;stroke-miterlimit:10;}
	.st15{fill:#4F359B;stroke:#4F359B;stroke-width:7;stroke-miterlimit:10;}
	.st16{fill:#4F359B;stroke:#4F359B;stroke-width:10;stroke-linecap:round;stroke-miterlimit:10;}
	.st17{fill:none;stroke:#4F359B;stroke-width:7;stroke-linejoin:round;stroke-miterlimit:5;}
	.st18{fill:#4F359B;stroke:#4F359B;stroke-width:3;stroke-linecap:round;stroke-linejoin:round;stroke-miterlimit:10;}
	.st19{fill:#4F359B;stroke:#4F359B;stroke-width:10;stroke-linecap:round;stroke-linejoin:round;stroke-miterlimit:10;}
	.st20{fill:#4F359B;stroke:#4F359B;stroke-width:10;stroke-miterlimit:10;}
	.st21{fill:#4F359B;stroke:#4F359B;}
	.st22{fill:#4F359B;stroke:#4F359B;stroke-miterlimit:10;}
	.st23{fill:none;stroke:#E9E3E6;stroke-width:7;stroke-miterlimit:10;}
	.st24{fill:#F2F2F2;stroke:#E9E3E6;stroke-width:7;stroke-miterlimit:10;}
	.st25{fill:#F2F2F2;stroke:#E9E3E6;stroke-width:10;stroke-linecap:round;stroke-miterlimit:10;}
	.st26{fill:#F2F2F2;}
	.st27{fill:none;stroke:#E9E3E6;stroke-width:7;stroke-linejoin:round;stroke-miterlimit:5;}
	.st28{fill:#F2F2F2;stroke:#E9E3E6;stroke-width:3;stroke-linecap:round;stroke-linejoin:round;stroke-miterlimit:10;}
	.st29{fill:#F2F2F2;stroke:#E9E3E6;stroke-width:10;stroke-linecap:round;stroke-linejoin:round;stroke-miterlimit:10;}
	.st30{fill:#F2F2F2;stroke:#E9E3E6;stroke-width:10;stroke-miterlimit:10;}
	.st31{fill:#F2F2F2;stroke:#E9E3E6;}
	.st32{fill:#F2F2F2;stroke:#E9E3E6;stroke-miterlimit:10;}
</style>
<rect x="1.6" y="0" class="st1" width="798.4" height="600"/>
<g>
	<g>
		<path class="st14" d="M454.6,328.4H345.4c-11,0-19.9-8.9-19.9-19.9V141.3c0-11,8.9-19.9,19.9-19.9h109.2c11,0,19.9,8.9,19.9,19.9
			v167.2C474.4,319.5,465.6,328.4,454.6,328.4z"/>
		<g>
			<path class="st15" d="M424.4,106.5c0-2.6-4.9-4.7-10.9-4.4h-27.9c-6-0.2-10.9,1.8-10.9,4.4v3.2h49.7V106.5z"/>
		</g>
		<g>
			<path class="st3" d="M403.5,129.7c0,2.2,0,4.4,0,6.6v6.6v13.1v13.1v6.6c-0.1,1.1,0,2.2-0.6,3.3c-0.1,0.3-0.4,0.5-0.7,0.8
				l-0.7,0.8c-0.5,0.5-0.9,1.1-1.5,1.6c-0.5-0.5-1-1.1-1.5-1.6l-0.7-0.8c-0.3-0.3-0.5-0.5-0.7-0.8c-0.6-1.1-0.5-2.2-0.6-3.3v-6.6
				v-13.1v-13.1v-6.6c0-2.2,0-4.4,0-6.6H403.5z"/>
		</g>
		<polyline class="st17" points="399.8,233.1 399.9,264.8 359.2,274.7 423.8,290.5 400.4,303.8 400.4,322.2 		"/>
		<g>
			<path class="st18" d="M399.3,233.1c10.7-5,21.7-13.6,28.5-24.6c3.2-5.2,3.8-13,0.8-18.5c-2.7-5-8.1-9.4-13.3-9.6
				c-6.6-0.3-12.8,2.9-15.8,9.9"/>
			<path class="st18" d="M399.9,233.1c-12.4-7.6-28-15.3-31.1-33.3c-1-9.6,5.2-17.3,13-19.1c6.7-1.2,15,1.2,17.9,9.5"/>
		</g>
	</g>
	<g>
		<path class="st21" d="M201.5,477.2l11.9-59.7c0.1-0.7,0.7-1.2,1.4-1.2h6.4c0.9,0,1.6,0.9,1.4,1.9l-11.9,59.7
			c-0.1,0.7-0.7,1.2-1.4,1.2h-6.4C202,479,201.3,478.1,201.5,477.2z M239.6,477.8l-4-21.6c-0.1-0.7-0.7-1.3-1.4-1.2
			c-0.3,0-0.5,0-0.8,0c-0.7,0-1.4,0-2.2,0h-10.5c-0.9,0-1.6-0.9-1.4-1.8c0,0,22.8-7.2,24.3-8.3c1.1-0.7,2.4-2.8,3-4.2
			c0.6-1.4,1-3.1,1.4-5c0.2-1,0.4-2,0.5-3c0.1-0.9,0.2-1.8,0.2-2.5c0-1.3-0.3-2.4-0.8-3.2c-0.6-0.9-1.6-1.5-3-2
			c-1.5-0.4-3.5-0.6-6.2-0.6h-12c-0.9,0-1.6-0.9-1.4-1.9l1-5c0.1-0.7,0.7-1.2,1.4-1.2h14.4c4.2,0,7.5,0.5,9.8,1.6
			c2.3,1,3.9,2.5,4.9,4.3c0.9,1.9,1.3,4.1,1.3,6.6c0,0.8,0,1.7-0.1,2.6c-0.1,0.9-0.2,1.9-0.3,2.9c-0.1,1-0.3,2-0.6,3
			c-0.5,2.1-1.1,4.1-1.7,5.8c-0.6,1.7-1.4,3.3-2.3,4.7c-0.9,1.4-2.1,2.5-3.5,3.5c-1.1,0.8-2.5,1.4-4,1.9c-0.7,0.2-1.1,1-1,1.8
			l4.6,22.3c0.2,1-0.5,1.9-1.4,1.9H241C240.4,479,239.8,478.5,239.6,477.8z"/>
		<path class="st21" d="M264.1,477.2l11.8-59.7c0.1-0.7,0.7-1.2,1.4-1.2h6.4c0.9,0,1.6,0.9,1.4,1.8l-11.8,59.7
			c-0.1,0.7-0.7,1.2-1.4,1.2h-6.4C264.6,479,263.9,478.1,264.1,477.2z M277.1,477.2l1-5.3c0.1-0.7,0.7-1.2,1.4-1.2H306
			c0.9,0,1.6,0.9,1.4,1.9l-1.1,5.3c-0.1,0.7-0.7,1.2-1.4,1.2h-26.5C277.6,479,276.9,478.1,277.1,477.2z M282.5,449.6l1-5.2
			c0.1-0.7,1.2-1.2,1.9-1.2h21.5c0.9,0,1.6,0.9,1.4,1.8l-1,5.2c-0.1,0.7-0.7,1.2-1.4,1.2h-22C283,451.5,282.3,450.6,282.5,449.6z
			 M287.7,422.8l1.1-5.3c0.1-0.7,0.7-1.2,1.4-1.2h26.6c0.9,0,1.6,0.9,1.4,1.8l-1,5.3c-0.1,0.7-0.7,1.2-1.4,1.2h-26.6
			C288.2,424.6,287.5,423.7,287.7,422.8z"/>
		<path class="st21" d="M335.9,479.7c-4.4,0-7.8-0.5-10.4-1.4c-2.5-0.9-4.3-2.4-5.4-4.2c-1-1.9-1.6-4.2-1.6-7c0-1.1,0.1-2.8,0.4-5.1
			c0.3-2.3,0.7-4.8,1.2-7.4c0.6-2.9,1.3-5.5,1.9-7.9c0.7-2.3,1.5-4.4,2.4-6.2c0.9-1.8,2.1-3.2,3.5-4.4c0.8-0.7,1.8-1.3,2.8-1.8
			c1-0.5,2.2,0.5,1.9,1.7l-3.9,19.7c-0.4,2-0.7,3.8-1,5.4c-0.3,1.6-0.4,3-0.4,4.1c0,1.8,0.4,3.2,1.1,4.2c0.7,1,1.8,1.7,3.4,2.1
			c1.6,0.4,3.7,0.5,6.2,0.5c1.6,0,3.5-0.1,5.6-0.3c1.3-0.1,2.5-0.3,3.6-0.4c0.9-0.1,1.7,0.8,1.5,1.8l-0.8,4.2
			c-0.1,0.6-0.6,1.1-1.1,1.2c-1.4,0.3-3,0.5-4.8,0.8C340.1,479.6,337.9,479.7,335.9,479.7z M336,438.3l1-5.1
			c0.1-0.6,0.6-1.1,1.2-1.2c0.5-0.1,1-0.1,1.5-0.2c0.9-0.1,1.8-0.1,2.7-0.1c2.5,0,5,0.1,7.6,0.4c1.9,0.2,3.6,0.4,5.1,0.6
			c0.8,0.1,1.3,1,1.2,1.8l-0.9,4.4c-0.2,0.8-0.9,1.3-1.6,1.2c-1.1-0.2-2.3-0.3-3.6-0.5c-1.9-0.2-3.8-0.3-5.5-0.3
			c-2.1,0-3.9,0.1-5.4,0.4c-0.5,0.1-1,0.2-1.5,0.3C336.7,440.4,335.8,439.5,336,438.3z"/>
		<path class="st21" d="M360.1,477.2l12.6-64.7c0.1-0.7,0.7-1.2,1.4-1.2h5.8c0.9,0,1.6,0.9,1.4,1.8l-12.6,64.7
			c-0.1,0.7-0.7,1.2-1.4,1.2h-5.8C360.6,479,359.9,478.1,360.1,477.2z M392.4,479c-0.9,0-1.6-0.9-1.4-1.9l4.8-24.2
			c0.2-1.3,0.4-2.6,0.7-4.1c0.2-1.4,0.3-2.6,0.3-3.4c0-1.7-0.3-3-0.9-3.8c-0.6-0.8-1.5-1.4-2.8-1.6c-1.3-0.3-3-0.4-5.2-0.4
			c-1.9,0-3.6,0.2-4.9,0.5c-0.4,0.1-0.8,0.2-1.1,0.3c-1,0.3-2-0.7-1.8-1.8l0.7-3.5c0.1-0.4,0.3-0.8,0.7-1c1.2-0.7,2.6-1.3,4.1-1.7
			c1.8-0.5,3.9-0.7,6.4-0.7c3.7,0,6.5,0.4,8.5,1.2c2,0.8,3.4,2,4.2,3.7c0.8,1.7,1.2,3.8,1.2,6.3c0,1.1-0.1,2.4-0.3,3.9
			c-0.2,1.5-0.4,3.1-0.7,4.7l-5.2,26.2c-0.1,0.7-0.7,1.2-1.4,1.2H392.4z"/>
		<path class="st21" d="M430,479.7c-3.5,0-6.3-0.4-8.5-1.1c-2.2-0.8-3.8-2.1-4.8-4c-1-1.9-1.5-4.5-1.5-7.8c0-1.5,0.1-3.2,0.3-5.2
			c0.2-1.9,0.6-4,1.1-6.3c0.9-4.7,1.9-8.5,3-11.6c1.1-3,2.3-5.4,3.8-7.2c1.5-1.8,3.3-3,5.4-3.7c2.1-0.7,4.8-1,7.9-1
			c2.9,0,5.5,0.2,7.8,0.7c1.9,0.4,3.4,1.1,4.6,2.1c0.4,0.4,0.6,1,0.5,1.5l-0.7,3.7c-0.2,1-1.2,1.4-2,1c-0.5-0.3-1-0.5-1.6-0.6
			c-1.4-0.4-3.2-0.6-5.4-0.6c-2.5,0-4.6,0.2-6.2,0.5c-1.6,0.4-2.9,1.1-3.9,2.2c-1,1.1-1.9,2.7-2.5,4.8c-0.7,2.1-1.4,5-2.1,8.6
			c-0.4,2.1-0.7,3.9-0.9,5.5c-0.2,1.6-0.3,3-0.3,4.1c0,1.9,0.3,3.3,1,4.2c0.6,0.9,1.7,1.6,3.1,1.9c1.4,0.3,3.4,0.5,5.8,0.5
			c2.2,0,4.1-0.2,5.6-0.6c0.4-0.1,0.8-0.3,1.2-0.4c1-0.4,2.1,0.6,1.9,1.8l-0.7,3.6c-0.1,0.4-0.3,0.7-0.6,1c-1.5,1-3.1,1.7-4.9,2
			C434.3,479.6,432.2,479.7,430,479.7z M445.3,477.2l8.5-43.5c0.1-0.7,0.7-1.2,1.4-1.2h5.8c0.9,0,1.6,0.9,1.4,1.8l-8.5,43.5
			c-0.1,0.7-0.7,1.2-1.4,1.2h-5.8C445.8,479,445.1,478.1,445.3,477.2z"/>
		<path class="st21" d="M467.9,477.2l8.5-43.5c0.1-0.7,0.7-1.2,1.4-1.2h5.8c0.9,0,1.6,0.9,1.4,1.8l-8.5,43.5
			c-0.1,0.7-0.7,1.2-1.4,1.2h-5.8C468.4,479,467.7,478.1,467.9,477.2z M487.3,441.1l1-5.3c0.1-0.4,0.3-0.7,0.6-0.9
			c1.6-1.1,3.3-1.9,5.1-2.4c1.6-0.4,3.3-0.6,5.2-0.7c0.9,0,1.6,0.9,1.5,1.8l-1.3,7.2c0,0,0,0,0,0c-2.9,0-5.4,0.3-7.5,1
			c-0.9,0.3-1.7,0.6-2.5,1C488.2,443.3,487,442.3,487.3,441.1z"/>
		<path class="st21" d="M486.3,497.6c0,0,0-1.3,2.5-1.5c8.8-0.6,29.7-3.3,31.3-3.6c2.1-0.4,6.5-4,7.5-5.2c1-1.3,2.1-2.5,2.8-4.3
			c0.7-1.8,1.3-4.1,1.9-6.8l8.3-42.5c0.1-0.7,0.7-1.2,1.4-1.2h5.9c0.9,0,1.6,0.9,1.4,1.8l-7.7,39c-0.7,3.5-1.4,6.6-2.2,9.4
			c-0.8,2.7-1.8,5-3,6.9c-1.2,1.9-2.6,3.5-4.5,4.7c-1.8,1.2-4.1,2.1-6.8,2.7C522.3,497.7,486.2,498.4,486.3,497.6z M517.4,479.6
			c-3.3,0-6-0.4-8.1-1.1c-2.1-0.7-3.6-2-4.6-3.8c-1-1.8-1.5-4.3-1.5-7.5c0-1.6,0.1-3.3,0.3-5.2c0.2-1.9,0.6-4.1,1-6.5
			c0.9-4.6,1.9-8.5,3-11.5c1.1-3,2.5-5.4,4-7.2c1.6-1.8,3.5-3,5.7-3.8c2.2-0.8,4.9-1.1,8-1.1c2.4,0,4.5,0.2,6.5,0.5
			c1.6,0.3,3,0.8,4.1,1.7c0.5,0.3,0.7,1,0.6,1.6l-0.8,4c-0.2,0.9-1.1,1.5-1.9,1.1c-0.4-0.2-0.9-0.3-1.4-0.5
			c-1.2-0.3-2.7-0.4-4.5-0.4c-2.5,0-4.6,0.2-6.2,0.5c-1.6,0.3-2.9,1-3.9,2.1c-1,1.1-1.8,2.7-2.5,4.8c-0.7,2.1-1.3,5-2,8.6
			c-0.4,2.1-0.7,3.9-0.9,5.5c-0.2,1.6-0.3,2.9-0.3,4c0,1.8,0.3,3.2,0.9,4.1c0.6,0.9,1.7,1.5,3.1,1.8c1.5,0.3,3.3,0.5,5.7,0.5
			c1.9,0,3.4-0.2,4.7-0.5c0.3-0.1,0.6-0.2,0.9-0.3c1-0.3,2,0.6,1.8,1.8l-0.7,3.8c-0.1,0.4-0.3,0.8-0.7,1c-1.3,0.8-2.8,1.3-4.4,1.6
			C521.5,479.4,519.5,479.6,517.4,479.6z"/>
		<path class="st21" d="M574.5,479.7c-4.6,0-8.3-0.4-10.9-1.1c-2.7-0.8-4.6-2-5.7-3.7c-1.1-1.7-1.6-4-1.6-6.8c0-1.6,0.1-3.5,0.4-5.5
			c0.3-2,0.7-4.3,1.2-6.7c0.6-3.3,1.3-6.2,2-8.7c0.7-2.5,1.5-4.6,2.4-6.4c0.9-1.8,2.1-3.3,3.5-4.5c0.8-0.7,1.8-1.3,2.8-1.8
			c1-0.5,2.2,0.5,1.9,1.7l-4.4,22.7c-0.3,1.5-0.5,2.8-0.7,4c-0.2,1.2-0.3,2.2-0.3,3.1c0,1.6,0.4,2.9,1.1,3.7c0.7,0.9,2,1.4,3.8,1.7
			c1.8,0.3,4.3,0.5,7.5,0.5c1.3,0,2.9,0,4.6-0.1c1.7-0.1,3.4-0.2,5.1-0.3c0.9-0.1,1.8-0.2,2.7-0.3c1-0.1,1.7,0.8,1.5,1.8l-0.8,4.3
			c-0.1,0.6-0.6,1.1-1.2,1.2c-1.1,0.2-2.3,0.4-3.7,0.5c-1.8,0.2-3.7,0.4-5.7,0.5C578.1,479.7,576.2,479.7,574.5,479.7z M570.1,457
			l0.7-3.3c0.1-0.7,0.7-1.2,1.4-1.2h15.5c0.7,0,1.2-0.5,1.4-1.2l0,0c0.2-1.3,0.4-2.4,0.5-3.3c0.1-0.9,0.2-1.8,0.2-2.6
			c0-1.7-0.3-3-0.9-3.8c-0.6-0.8-1.6-1.4-2.8-1.6c-1.3-0.2-2.9-0.4-4.9-0.4c-1.7,0-3.2,0.1-4.5,0.2c-0.4,0-0.8,0.1-1.1,0.2
			c-1,0.2-1.8-0.7-1.6-1.8l0.9-4.8c0.1-0.6,0.6-1.1,1.2-1.2c0.8-0.1,1.6-0.2,2.5-0.3c1.3-0.1,2.7-0.1,4.1-0.1c4,0,7.2,0.4,9.5,1.2
			c2.3,0.8,3.9,2,4.9,3.6c1,1.6,1.4,3.7,1.4,6.3c0,1-0.1,2.2-0.2,3.6c-0.1,1.3-0.4,2.8-0.7,4.4c-0.3,1.6-0.7,3.3-1.1,5.1l-0.4,1.8
			c-0.2,0.7-0.7,1.2-1.4,1.2h-23.3C570.6,458.9,569.9,458,570.1,457z"/>
	</g>
</g>
</svg>
